<?xml version="1.0" encoding="utf-8"?>
<!-- Generator: Adobe Illustrator 25.2.3, SVG Export Plug-In . SVG Version: 6.00 Build 0)  -->
<svg version="1.1" xmlns="http://www.w3.org/2000/svg" xmlns:xlink="http://www.w3.org/1999/xlink" x="0px" y="0px"
	 viewBox="0 0 49.3 39" style="enable-background:new 0 0 49.3 39;" xml:space="preserve">
<style type="text/css">
	.st0{fill:#E31337;}
	.st1{fill:#808285;}
</style>
<g id="Layer_1">
</g>
<g id="Layer_2">
	<g>
		<g>
			<g>
				<polygon class="st0" points="24,34.6 23.4,35.5 24,36.4 24.6,35.5 				"/>
				<polygon points="22.7,36.6 21.6,38.4 22.7,38.4 23.3,37.4 				"/>
				<polygon points="25.3,36.6 26.4,38.4 25.3,38.4 24.7,37.4 				"/>
				<polygon class="st1" points="24.6,35.6 24.1,36.4 24.6,37.3 25.2,36.5 				"/>
				<polygon class="st1" points="23.4,35.6 22.8,36.4 23.4,37.3 23.9,36.5 				"/>
			</g>
			<g>
				<polygon points="27.2,34.6 27.2,38.4 27.8,38.4 27.8,36.3 27.8,34.6 				"/>
				<polygon points="28.4,36.3 30.1,34.6 29.3,34.6 27.8,36.3 29.5,38.4 30.2,38.4 				"/>
			</g>
			<path class="st0" d="M34.2,35.9c0,0-0.5-1.4-1.3-1.4c-0.9,0-1.8,0-1.8,0v3.8h1.9c0,0,1.3-0.2,1.3-1.3
				C34.2,35.9,34.2,35.9,34.2,35.9z M33.7,36.9c0,0.9-0.8,1-0.8,1h-1.2v-3c0,0,0.6,0,1.2,0c0.6,0,0.9,1.1,0.9,1.1S33.7,36,33.7,36.9
				z"/>
			<path d="M16.7,34.6c-0.5,0-1.8,0-1.8,0v3.8h0.6v-1.7h1.1c0,0,0.9-0.2,1-0.8C17.5,35.3,17.2,34.6,16.7,34.6z M16.9,35.9
				c0,0.3-0.5,0.4-0.5,0.4h-1V35c0,0,0.8,0,1,0s0.5,0.3,0.5,0.3S16.9,35.6,16.9,35.9z"/>
			<polygon points="18.4,34.6 18.4,38.4 20.9,38.4 20.9,37.9 18.9,37.9 18.9,36.7 20.8,36.7 20.8,36.2 18.9,36.2 18.9,35 20.9,35 
				20.9,34.6 			"/>
		</g>
		<g>
			<polygon class="st0" points="24.8,0 18.8,9.5 24.8,19 30.8,9.5 			"/>
			<polygon points="11.7,20.4 0,39 11.3,39 17.6,29.3 			"/>
			<polygon points="37.6,20.4 49.3,39 38,39 31.7,29.3 			"/>
			<polygon class="st1" points="31.3,10.3 25.7,19.2 31.3,28.4 37.1,19.3 			"/>
			<polygon class="st1" points="18.1,10.3 12.5,19.2 18.1,28.4 23.9,19.3 			"/>
		</g>
	</g>
</g>
</svg>
